<svg xmlns="http://www.w3.org/2000/svg" width="71" height="70" viewBox="0 0 71 70" fill="none">
<path d="M64.2833 27.5086H6.70802C3.98026 27.5086 2.81122 24.5002 4.95446 23.0699L33.7421 3.9835C34.2736 3.66693 34.879 3.5 35.4956 3.5C36.1123 3.5 36.7177 3.66693 37.2492 3.9835L66.0368 23.0699C68.1801 24.5002 67.011 27.5086 64.2833 27.5086Z" stroke="#1D1C31" stroke-width="4" stroke-linecap="round" stroke-linejoin="round"/>
<path d="M64.721 54.634H6.269C4.92391 54.634 3.8335 55.7381 3.8335 57.1V64.4978C3.8335 65.8597 4.92391 66.9638 6.269 66.9638H64.721C66.0661 66.9638 67.1565 65.8597 67.1565 64.4978V57.1C67.1565 55.7381 66.0661 54.634 64.721 54.634Z" stroke="#1D1C31" stroke-width="4" stroke-linecap="round" stroke-linejoin="round"/>
<path d="M11.1401 27.5086V54.634M23.3176 27.5086V54.634M35.4951 27.5086V54.634M47.6726 27.5086V54.634M59.8501 27.5086V54.634" stroke="#1D1C31" stroke-width="4" stroke-linecap="round" stroke-linejoin="round"/>
</svg>