<svg width="201" height="44" viewBox="0 0 201 44" fill="none" xmlns="http://www.w3.org/2000/svg">
<path d="M20.278 7.15L12.5515 25H8.4715L0.7705 7.15H5.233L10.6645 19.9L16.1725 7.15H20.278ZM26.0004 11.077C28.1254 11.077 29.7574 11.587 30.8964 12.607C32.0354 13.61 32.6049 15.1315 32.6049 17.1715V25H28.8819V23.2915C28.1339 24.5665 26.7399 25.204 24.6999 25.204C23.6459 25.204 22.7279 25.0255 21.9459 24.6685C21.1809 24.3115 20.5944 23.8185 20.1864 23.1895C19.7784 22.5605 19.5744 21.8465 19.5744 21.0475C19.5744 19.7725 20.0504 18.7695 21.0024 18.0385C21.9714 17.3075 23.4589 16.942 25.4649 16.942H28.6269C28.6269 16.075 28.3634 15.412 27.8364 14.953C27.3094 14.477 26.5189 14.239 25.4649 14.239C24.7339 14.239 24.0114 14.358 23.2974 14.596C22.6004 14.817 22.0054 15.123 21.5124 15.514L20.0844 12.7345C20.8324 12.2075 21.7249 11.7995 22.7619 11.5105C23.8159 11.2215 24.8954 11.077 26.0004 11.077ZM25.6944 22.5265C26.3744 22.5265 26.9779 22.3735 27.5049 22.0675C28.0319 21.7445 28.4059 21.277 28.6269 20.665V19.2625H25.8984C24.2664 19.2625 23.4504 19.798 23.4504 20.869C23.4504 21.379 23.6459 21.787 24.0369 22.093C24.4449 22.382 24.9974 22.5265 25.6944 22.5265ZM42.9846 25.204C41.5226 25.204 40.2051 24.9065 39.0321 24.3115C37.8761 23.6995 36.9666 22.858 36.3036 21.787C35.6576 20.716 35.3346 19.5005 35.3346 18.1405C35.3346 16.7805 35.6576 15.565 36.3036 14.494C36.9666 13.423 37.8761 12.59 39.0321 11.995C40.2051 11.383 41.5226 11.077 42.9846 11.077C44.4296 11.077 45.6876 11.383 46.7586 11.995C47.8466 12.59 48.6371 13.4485 49.1301 14.5705L46.0446 16.228C45.3306 14.97 44.3021 14.341 42.9591 14.341C41.9221 14.341 41.0636 14.681 40.3836 15.361C39.7036 16.041 39.3636 16.9675 39.3636 18.1405C39.3636 19.3135 39.7036 20.24 40.3836 20.92C41.0636 21.6 41.9221 21.94 42.9591 21.94C44.3191 21.94 45.3476 21.311 46.0446 20.053L49.1301 21.736C48.6371 22.824 47.8466 23.674 46.7586 24.286C45.6876 24.898 44.4296 25.204 42.9846 25.204ZM57.8762 25.204C56.4142 25.204 55.0967 24.9065 53.9237 24.3115C52.7677 23.6995 51.8582 22.858 51.1952 21.787C50.5492 20.716 50.2262 19.5005 50.2262 18.1405C50.2262 16.7805 50.5492 15.565 51.1952 14.494C51.8582 13.423 52.7677 12.59 53.9237 11.995C55.0967 11.383 56.4142 11.077 57.8762 11.077C59.3212 11.077 60.5792 11.383 61.6502 11.995C62.7382 12.59 63.5287 13.4485 64.0217 14.5705L60.9362 16.228C60.2222 14.97 59.1937 14.341 57.8507 14.341C56.8137 14.341 55.9552 14.681 55.2752 15.361C54.5952 16.041 54.2552 16.9675 54.2552 18.1405C54.2552 19.3135 54.5952 20.24 55.2752 20.92C55.9552 21.6 56.8137 21.94 57.8507 21.94C59.2107 21.94 60.2392 21.311 60.9362 20.053L64.0217 21.736C63.5287 22.824 62.7382 23.674 61.6502 24.286C60.5792 24.898 59.3212 25.204 57.8762 25.204ZM66.3121 11.281H70.2901V25H66.3121V11.281ZM68.3011 9.3685C67.5701 9.3685 66.9751 9.156 66.5161 8.731C66.0571 8.306 65.8276 7.779 65.8276 7.15C65.8276 6.521 66.0571 5.994 66.5161 5.569C66.9751 5.144 67.5701 4.9315 68.3011 4.9315C69.0321 4.9315 69.6271 5.1355 70.0861 5.5435C70.5451 5.9515 70.7746 6.4615 70.7746 7.0735C70.7746 7.7365 70.5451 8.289 70.0861 8.731C69.6271 9.156 69.0321 9.3685 68.3011 9.3685ZM82.3205 11.077C84.0205 11.077 85.389 11.587 86.426 12.607C87.48 13.627 88.007 15.14 88.007 17.146V25H84.029V17.758C84.029 16.67 83.791 15.8625 83.315 15.3355C82.839 14.7915 82.1505 14.5195 81.2495 14.5195C80.2465 14.5195 79.4475 14.834 78.8525 15.463C78.2575 16.075 77.96 16.993 77.96 18.217V25H73.982V11.281H77.7815V12.8875C78.3085 12.3095 78.963 11.8675 79.745 11.5615C80.527 11.2385 81.3855 11.077 82.3205 11.077ZM97.1464 11.077C99.2714 11.077 100.903 11.587 102.042 12.607C103.181 13.61 103.751 15.1315 103.751 17.1715V25H100.028V23.2915C99.2799 24.5665 97.8859 25.204 95.8459 25.204C94.7919 25.204 93.8739 25.0255 93.0919 24.6685C92.3269 24.3115 91.7404 23.8185 91.3324 23.1895C90.9244 22.5605 90.7204 21.8465 90.7204 21.0475C90.7204 19.7725 91.1964 18.7695 92.1484 18.0385C93.1174 17.3075 94.6049 16.942 96.6109 16.942H99.7729C99.7729 16.075 99.5094 15.412 98.9824 14.953C98.4554 14.477 97.6649 14.239 96.6109 14.239C95.8799 14.239 95.1574 14.358 94.4434 14.596C93.7464 14.817 93.1514 15.123 92.6584 15.514L91.2304 12.7345C91.9784 12.2075 92.8709 11.7995 93.9079 11.5105C94.9619 11.2215 96.0414 11.077 97.1464 11.077ZM96.8404 22.5265C97.5204 22.5265 98.1239 22.3735 98.6509 22.0675C99.1779 21.7445 99.5519 21.277 99.7729 20.665V19.2625H97.0444C95.4124 19.2625 94.5964 19.798 94.5964 20.869C94.5964 21.379 94.7919 21.787 95.1829 22.093C95.5909 22.382 96.1434 22.5265 96.8404 22.5265ZM116.2 24.337C115.809 24.626 115.324 24.847 114.746 25C114.185 25.136 113.59 25.204 112.961 25.204C111.329 25.204 110.063 24.7875 109.162 23.9545C108.278 23.1215 107.836 21.8975 107.836 20.2825V14.647H105.719V11.587H107.836V8.2465H111.814V11.587H115.231V14.647H111.814V20.2315C111.814 20.8095 111.958 21.26 112.247 21.583C112.553 21.889 112.978 22.042 113.522 22.042C114.151 22.042 114.687 21.872 115.129 21.532L116.2 24.337ZM118.433 11.281H122.411V25H118.433V11.281ZM120.422 9.3685C119.691 9.3685 119.096 9.156 118.637 8.731C118.178 8.306 117.948 7.779 117.948 7.15C117.948 6.521 118.178 5.994 118.637 5.569C119.096 5.144 119.691 4.9315 120.422 4.9315C121.153 4.9315 121.748 5.1355 122.207 5.5435C122.666 5.9515 122.895 6.4615 122.895 7.0735C122.895 7.7365 122.666 8.289 122.207 8.731C121.748 9.156 121.153 9.3685 120.422 9.3685ZM132.631 25.204C131.186 25.204 129.885 24.9065 128.729 24.3115C127.59 23.6995 126.698 22.858 126.052 21.787C125.406 20.716 125.083 19.5005 125.083 18.1405C125.083 16.7805 125.406 15.565 126.052 14.494C126.698 13.423 127.59 12.59 128.729 11.995C129.885 11.383 131.186 11.077 132.631 11.077C134.076 11.077 135.368 11.383 136.507 11.995C137.646 12.59 138.538 13.423 139.184 14.494C139.83 15.565 140.153 16.7805 140.153 18.1405C140.153 19.5005 139.83 20.716 139.184 21.787C138.538 22.858 137.646 23.6995 136.507 24.3115C135.368 24.9065 134.076 25.204 132.631 25.204ZM132.631 21.94C133.651 21.94 134.484 21.6 135.13 20.92C135.793 20.223 136.124 19.2965 136.124 18.1405C136.124 16.9845 135.793 16.0665 135.13 15.3865C134.484 14.6895 133.651 14.341 132.631 14.341C131.611 14.341 130.769 14.6895 130.106 15.3865C129.443 16.0665 129.112 16.9845 129.112 18.1405C129.112 19.2965 129.443 20.223 130.106 20.92C130.769 21.6 131.611 21.94 132.631 21.94ZM151.151 11.077C152.851 11.077 154.219 11.587 155.256 12.607C156.31 13.627 156.837 15.14 156.837 17.146V25H152.859V17.758C152.859 16.67 152.621 15.8625 152.145 15.3355C151.669 14.7915 150.981 14.5195 150.08 14.5195C149.077 14.5195 148.278 14.834 147.683 15.463C147.088 16.075 146.79 16.993 146.79 18.217V25H142.812V11.281H146.612V12.8875C147.139 12.3095 147.793 11.8675 148.575 11.5615C149.357 11.2385 150.216 11.077 151.151 11.077ZM161.947 25.204C161.25 25.204 160.664 24.966 160.188 24.49C159.712 24.014 159.474 23.419 159.474 22.705C159.474 21.974 159.712 21.3875 160.188 20.9455C160.664 20.4865 161.25 20.257 161.947 20.257C162.644 20.257 163.231 20.4865 163.707 20.9455C164.183 21.3875 164.421 21.974 164.421 22.705C164.421 23.419 164.183 24.014 163.707 24.49C163.231 24.966 162.644 25.204 161.947 25.204ZM175.455 11.077C177.155 11.077 178.524 11.587 179.561 12.607C180.615 13.627 181.142 15.14 181.142 17.146V25H177.164V17.758C177.164 16.67 176.926 15.8625 176.45 15.3355C175.974 14.7915 175.285 14.5195 174.384 14.5195C173.381 14.5195 172.582 14.834 171.987 15.463C171.392 16.075 171.095 16.993 171.095 18.217V25H167.117V11.281H170.916V12.8875C171.443 12.3095 172.098 11.8675 172.88 11.5615C173.662 11.2385 174.52 11.077 175.455 11.077ZM199.05 11.281V22.705C199.05 25.221 198.395 27.091 197.086 28.315C195.777 29.539 193.865 30.151 191.349 30.151C190.023 30.151 188.765 29.9895 187.575 29.6665C186.385 29.3435 185.399 28.876 184.617 28.264L186.198 25.408C186.776 25.884 187.507 26.258 188.391 26.53C189.275 26.819 190.159 26.9635 191.043 26.9635C192.42 26.9635 193.431 26.649 194.077 26.02C194.74 25.408 195.072 24.473 195.072 23.215V22.6285C194.035 23.7675 192.59 24.337 190.737 24.337C189.479 24.337 188.323 24.065 187.269 23.521C186.232 22.96 185.407 22.178 184.795 21.175C184.183 20.172 183.877 19.016 183.877 17.707C183.877 16.398 184.183 15.242 184.795 14.239C185.407 13.236 186.232 12.4625 187.269 11.9185C188.323 11.3575 189.479 11.077 190.737 11.077C192.726 11.077 194.239 11.7315 195.276 13.0405V11.281H199.05ZM191.527 21.073C192.581 21.073 193.44 20.767 194.103 20.155C194.783 19.526 195.123 18.71 195.123 17.707C195.123 16.704 194.783 15.8965 194.103 15.2845C193.44 14.6555 192.581 14.341 191.527 14.341C190.473 14.341 189.606 14.6555 188.926 15.2845C188.246 15.8965 187.906 16.704 187.906 17.707C187.906 18.71 188.246 19.526 188.926 20.155C189.606 20.767 190.473 21.073 191.527 21.073Z" fill="white"/>
<line x1="2.5" y1="42.5" x2="99.5" y2="42.5" stroke="#17C2EC" stroke-width="3" stroke-linecap="round"/>
</svg>
