<svg xmlns="http://www.w3.org/2000/svg" width="71" height="70" viewBox="0 0 71 70" fill="none">
<path d="M13.2557 15.5057V38.5975C13.2557 51.1685 23.22 61.357 35.5098 61.357C47.7996 61.357 57.7639 51.1685 57.7639 38.5975V15.5181L35.3761 7.99164L13.2557 15.5057ZM35.3699 3.5L61.9361 12.4274V38.5975C61.9361 53.523 50.1033 65.625 35.5098 65.625C20.9163 65.625 9.0835 53.523 9.0835 38.5975V12.4274L35.3699 3.5ZM49.1085 23.644C48.9055 23.4578 48.6671 23.3143 48.4075 23.2221C48.1478 23.1299 47.8723 23.0909 47.5972 23.1074C47.3221 23.1239 47.0532 23.1956 46.8065 23.3183C46.5598 23.4409 46.3403 23.6119 46.1612 23.8211L32.7428 39.256L24.075 29.6733C23.8917 29.4681 23.669 29.3019 23.4202 29.1845C23.1713 29.0672 22.9014 29.001 22.6264 28.99C22.3514 28.979 22.077 29.0233 21.8195 29.1204C21.5621 29.2176 21.3268 29.3654 21.1277 29.5552C20.72 29.9445 20.4801 30.477 20.4586 31.04C20.4371 31.603 20.6358 32.1522 21.0126 32.5714L31.2412 43.8781C31.436 44.097 31.6755 44.2716 31.9435 44.3901C32.2115 44.5087 32.5019 44.5686 32.795 44.5656C33.0881 44.5627 33.3772 44.497 33.6427 44.3731C33.9083 44.2491 34.1442 44.0698 34.3346 43.8471L49.2795 26.6571C49.6483 26.2311 49.8367 25.6783 49.8048 25.116C49.7729 24.5536 49.5231 24.0257 49.1085 23.644Z" fill="#1D1C31"/>
</svg>